*******************************************************************************
 Abduction.2011.KORSUB.HDRip.Xvid.AC3- SiNiSTER
*******************************************************************************
-------------------------------------------------------------------------------
 General Information
-------------------------------------------------------------------------------
[img]http://madservers.net/images/972903abduction poster.jpg[/img]
Format : AVI
Format/Info : Audio Video Interleave
File size : 1.79 GiB
Duration : 1h 46mn
Overall bit rate : 2 398 Kbps
Video
ID : 0
Format : MPEG-4 Visual
Format profile : Advanced Simple@L5
Format settings, BVOP : Yes
Format settings, QPel : No
Format settings, GMC : No warppoints
Format settings, Matrix : Default (H.263)
Muxing mode : Packed bitstream
Codec ID : XVID
Codec ID/Hint : XviD
Duration : 1h 46mn
Bit rate : 2 005 Kbps
Width : 720 pixels
Height : 304 pixels
Display aspect ratio : 2.35:1
Frame rate : 29.970 fps
Color space : YUV
Chroma subsampling : 4:2:0
Bit depth : 8 bits
Scan type : Progressive
Bits/(Pixel*Frame) : 0.306
Stream size : 1.50 GiB (84%)
Writing library : XviD 1.2.1 (UTC 2008-12-04)
Audio
ID : 1
Format : AC-3
Format/Info : Audio Coding 3
Mode extension : CM (complete main)
Codec ID : 2000
Duration : 1h 46mn
Bit rate mode : Constant
Bit rate : 384 Kbps
Channel(s) : 6 channels
Channel positions : Front: L C R, Side: L R, LFE
Sampling rate : 48.0 KHz
Bit depth : 16 bits
Stream size : 294 MiB (16%)
Alignment : Aligned on interleaves
Interleave, duration : 64 ms (1.92 video frames)
Interleave, preload duration : 192 ms
Video Source: Abduction.2011.HDRip.H264.AAC-P2P.....thanks	
Audio Source: Abduction.2011.HDRip.H264.AAC-P2P.....thanks
Greets:
DarkScene,HDScene,Noir,CrEwSaDe,blackjesus,ViSiON,HDLiTE,UnKnOwN,IMAGiNE,
FLAWL3SS,Rx,ELEKTRI4KA,CiNEDUB,BDK,SAFCuk009,HiVE-CM8..... and everybody else we 
respect.. u know who u are
-------------------------------------------------------------------------------
 Post Information
-------------------------------------------------------------------------------
Encoded by...........: SiNiSTER
 
Have sumthing to offer..looking for suppliers... cammers,cams,screeners, audio
supplier.. and any pre retail DVD/BR any RC...if u can provide any email us at
sinister@hushmail.me
-------------------------------------------------------------------------------
 Release Notes
-------------------------------------------------------------------------------
source was nice.. just made a script to crop, resize, adjust coloring slightly,
deblock, denoise and sharpen.. then converted AAC to higher bitrate AC3 then upmixed 
to 5.1......enjoy
-------------------------------------------------------------------------------
 ScreenShots
------------------------------------------------------------------------------- 
http://madservers.net/images/796594vlcsnap-00001.png 
http://madservers.net/images/28744vlcsnap-00002.png 
http://madservers.net/images/53552vlcsnap-00003.png 
http://madservers.net/images/801873vlcsnap-00004.png 
http://madservers.net/images/143568Abduction.2011.KORSUB.HDRip.Xvid.AC3- SiNiSTER.jpg
-------------------------------------------------------------------------------
[img]http://leetleech.org/images/33506450373550172140.gif[/img]
-------------------------------------------------------------------------------
Generated with Cool NFO Creator - http://fly.to/coolbeans
-------------------------------------------------------------------------------